<mxfile host="app.diagrams.net" modified="2022-05-05T12:20:40.117Z" agent="5.0 (Macintosh; Intel Mac OS X 10_15_7) AppleWebKit/537.36 (KHTML, like Gecko) Chrome/100.0.4896.127 Safari/537.36" etag="WbaUQDvWHC79vLVRZERp" version="18.0.0" type="github">
  <diagram id="REKJF-Y3c_5m74wAslqW" name="Page-1">
    <mxGraphModel dx="2703" dy="2780" grid="1" gridSize="10" guides="1" tooltips="1" connect="1" arrows="1" fold="1" page="1" pageScale="1" pageWidth="850" pageHeight="1100" math="0" shadow="0">
      <root>
        <mxCell id="0" />
        <mxCell id="1" parent="0" />
        <mxCell id="viqxkSpvM3g-2Dvo09nj-1" value="Users" style="swimlane;fontStyle=0;align=center;verticalAlign=top;childLayout=stackLayout;horizontal=1;startSize=26;horizontalStack=0;resizeParent=1;resizeLast=0;collapsible=1;marginBottom=0;rounded=0;shadow=0;strokeWidth=1;" vertex="1" parent="1">
          <mxGeometry x="470" y="-340" width="180" height="320" as="geometry">
            <mxRectangle x="230" y="140" width="160" height="26" as="alternateBounds" />
          </mxGeometry>
        </mxCell>
        <mxCell id="viqxkSpvM3g-2Dvo09nj-2" value="- email: str" style="text;align=left;verticalAlign=top;spacingLeft=4;spacingRight=4;overflow=hidden;rotatable=0;points=[[0,0.5],[1,0.5]];portConstraint=eastwest;" vertex="1" parent="viqxkSpvM3g-2Dvo09nj-1">
          <mxGeometry y="26" width="180" height="26" as="geometry" />
        </mxCell>
        <mxCell id="viqxkSpvM3g-2Dvo09nj-3" value="- password: bcrypt_password" style="text;align=left;verticalAlign=top;spacingLeft=4;spacingRight=4;overflow=hidden;rotatable=0;points=[[0,0.5],[1,0.5]];portConstraint=eastwest;rounded=0;shadow=0;html=0;" vertex="1" parent="viqxkSpvM3g-2Dvo09nj-1">
          <mxGeometry y="52" width="180" height="26" as="geometry" />
        </mxCell>
        <mxCell id="viqxkSpvM3g-2Dvo09nj-4" value="- username: str" style="text;align=left;verticalAlign=top;spacingLeft=4;spacingRight=4;overflow=hidden;rotatable=0;points=[[0,0.5],[1,0.5]];portConstraint=eastwest;rounded=0;shadow=0;html=0;" vertex="1" parent="viqxkSpvM3g-2Dvo09nj-1">
          <mxGeometry y="78" width="180" height="26" as="geometry" />
        </mxCell>
        <mxCell id="viqxkSpvM3g-2Dvo09nj-5" value="- auth_type: int" style="text;align=left;verticalAlign=top;spacingLeft=4;spacingRight=4;overflow=hidden;rotatable=0;points=[[0,0.5],[1,0.5]];portConstraint=eastwest;rounded=0;shadow=0;html=0;" vertex="1" parent="viqxkSpvM3g-2Dvo09nj-1">
          <mxGeometry y="104" width="180" height="26" as="geometry" />
        </mxCell>
        <mxCell id="viqxkSpvM3g-2Dvo09nj-6" value="- confirmed:int" style="text;align=left;verticalAlign=top;spacingLeft=4;spacingRight=4;overflow=hidden;rotatable=0;points=[[0,0.5],[1,0.5]];portConstraint=eastwest;rounded=0;shadow=0;html=0;" vertex="1" parent="viqxkSpvM3g-2Dvo09nj-1">
          <mxGeometry y="130" width="180" height="26" as="geometry" />
        </mxCell>
        <mxCell id="viqxkSpvM3g-2Dvo09nj-7" value="- balance: float" style="text;align=left;verticalAlign=top;spacingLeft=4;spacingRight=4;overflow=hidden;rotatable=0;points=[[0,0.5],[1,0.5]];portConstraint=eastwest;rounded=0;shadow=0;html=0;" vertex="1" parent="viqxkSpvM3g-2Dvo09nj-1">
          <mxGeometry y="156" width="180" height="26" as="geometry" />
        </mxCell>
        <mxCell id="viqxkSpvM3g-2Dvo09nj-8" value="- cart: dict" style="text;align=left;verticalAlign=top;spacingLeft=4;spacingRight=4;overflow=hidden;rotatable=0;points=[[0,0.5],[1,0.5]];portConstraint=eastwest;rounded=0;shadow=0;html=0;" vertex="1" parent="viqxkSpvM3g-2Dvo09nj-1">
          <mxGeometry y="182" width="180" height="26" as="geometry" />
        </mxCell>
        <mxCell id="viqxkSpvM3g-2Dvo09nj-9" value="- image_path: str" style="text;align=left;verticalAlign=top;spacingLeft=4;spacingRight=4;overflow=hidden;rotatable=0;points=[[0,0.5],[1,0.5]];portConstraint=eastwest;rounded=0;shadow=0;html=0;" vertex="1" parent="viqxkSpvM3g-2Dvo09nj-1">
          <mxGeometry y="208" width="180" height="26" as="geometry" />
        </mxCell>
        <mxCell id="viqxkSpvM3g-2Dvo09nj-10" value="- staff_of: str" style="text;align=left;verticalAlign=top;spacingLeft=4;spacingRight=4;overflow=hidden;rotatable=0;points=[[0,0.5],[1,0.5]];portConstraint=eastwest;rounded=0;shadow=0;html=0;" vertex="1" parent="viqxkSpvM3g-2Dvo09nj-1">
          <mxGeometry y="234" width="180" height="26" as="geometry" />
        </mxCell>
        <mxCell id="viqxkSpvM3g-2Dvo09nj-11" value="" style="line;html=1;strokeWidth=1;align=left;verticalAlign=middle;spacingTop=-1;spacingLeft=3;spacingRight=3;rotatable=0;labelPosition=right;points=[];portConstraint=eastwest;" vertex="1" parent="viqxkSpvM3g-2Dvo09nj-1">
          <mxGeometry y="260" width="180" height="8" as="geometry" />
        </mxCell>
        <mxCell id="viqxkSpvM3g-2Dvo09nj-12" value="+ to_json(): dict" style="text;align=left;verticalAlign=top;spacingLeft=4;spacingRight=4;overflow=hidden;rotatable=0;points=[[0,0.5],[1,0.5]];portConstraint=eastwest;" vertex="1" parent="viqxkSpvM3g-2Dvo09nj-1">
          <mxGeometry y="268" width="180" height="26" as="geometry" />
        </mxCell>
        <mxCell id="viqxkSpvM3g-2Dvo09nj-13" value="+ template_object(): dict" style="text;align=left;verticalAlign=top;spacingLeft=4;spacingRight=4;overflow=hidden;rotatable=0;points=[[0,0.5],[1,0.5]];portConstraint=eastwest;rounded=0;shadow=0;html=0;" vertex="1" parent="viqxkSpvM3g-2Dvo09nj-1">
          <mxGeometry y="294" width="180" height="26" as="geometry" />
        </mxCell>
        <mxCell id="viqxkSpvM3g-2Dvo09nj-132" style="edgeStyle=orthogonalEdgeStyle;rounded=0;orthogonalLoop=1;jettySize=auto;html=1;exitX=0.5;exitY=0;exitDx=0;exitDy=0;endArrow=none;endFill=0;" edge="1" parent="1" source="viqxkSpvM3g-2Dvo09nj-14">
          <mxGeometry relative="1" as="geometry">
            <mxPoint x="460" y="20" as="targetPoint" />
          </mxGeometry>
        </mxCell>
        <mxCell id="viqxkSpvM3g-2Dvo09nj-14" value="Customer" style="swimlane;fontStyle=0;align=center;verticalAlign=top;childLayout=stackLayout;horizontal=1;startSize=26;horizontalStack=0;resizeParent=1;resizeLast=0;collapsible=1;marginBottom=0;rounded=0;shadow=0;strokeWidth=1;" vertex="1" parent="1">
          <mxGeometry x="480" y="40" width="160" height="348" as="geometry">
            <mxRectangle x="130" y="380" width="160" height="26" as="alternateBounds" />
          </mxGeometry>
        </mxCell>
        <mxCell id="viqxkSpvM3g-2Dvo09nj-15" value="- auth_type: 2" style="text;align=left;verticalAlign=top;spacingLeft=4;spacingRight=4;overflow=hidden;rotatable=0;points=[[0,0.5],[1,0.5]];portConstraint=eastwest;rounded=0;shadow=0;html=0;" vertex="1" parent="viqxkSpvM3g-2Dvo09nj-14">
          <mxGeometry y="26" width="160" height="26" as="geometry" />
        </mxCell>
        <mxCell id="viqxkSpvM3g-2Dvo09nj-16" value="" style="line;html=1;strokeWidth=1;align=left;verticalAlign=middle;spacingTop=-1;spacingLeft=3;spacingRight=3;rotatable=0;labelPosition=right;points=[];portConstraint=eastwest;" vertex="1" parent="viqxkSpvM3g-2Dvo09nj-14">
          <mxGeometry y="52" width="160" height="8" as="geometry" />
        </mxCell>
        <mxCell id="viqxkSpvM3g-2Dvo09nj-17" value="- register_page()" style="text;align=left;verticalAlign=top;spacingLeft=4;spacingRight=4;overflow=hidden;rotatable=0;points=[[0,0.5],[1,0.5]];portConstraint=eastwest;rounded=0;shadow=0;html=0;" vertex="1" parent="viqxkSpvM3g-2Dvo09nj-14">
          <mxGeometry y="60" width="160" height="26" as="geometry" />
        </mxCell>
        <mxCell id="viqxkSpvM3g-2Dvo09nj-18" value="- login_page()" style="text;align=left;verticalAlign=top;spacingLeft=4;spacingRight=4;overflow=hidden;rotatable=0;points=[[0,0.5],[1,0.5]];portConstraint=eastwest;fontStyle=0" vertex="1" parent="viqxkSpvM3g-2Dvo09nj-14">
          <mxGeometry y="86" width="160" height="26" as="geometry" />
        </mxCell>
        <mxCell id="viqxkSpvM3g-2Dvo09nj-19" value="- logout_page()" style="text;align=left;verticalAlign=top;spacingLeft=4;spacingRight=4;overflow=hidden;rotatable=0;points=[[0,0.5],[1,0.5]];portConstraint=eastwest;" vertex="1" parent="viqxkSpvM3g-2Dvo09nj-14">
          <mxGeometry y="112" width="160" height="26" as="geometry" />
        </mxCell>
        <mxCell id="viqxkSpvM3g-2Dvo09nj-20" value="- confirm_email()" style="text;align=left;verticalAlign=top;spacingLeft=4;spacingRight=4;overflow=hidden;rotatable=0;points=[[0,0.5],[1,0.5]];portConstraint=eastwest;rounded=0;shadow=0;html=0;" vertex="1" parent="viqxkSpvM3g-2Dvo09nj-14">
          <mxGeometry y="138" width="160" height="26" as="geometry" />
        </mxCell>
        <mxCell id="viqxkSpvM3g-2Dvo09nj-21" value="- user_account()" style="text;align=left;verticalAlign=top;spacingLeft=4;spacingRight=4;overflow=hidden;rotatable=0;points=[[0,0.5],[1,0.5]];portConstraint=eastwest;rounded=0;shadow=0;html=0;" vertex="1" parent="viqxkSpvM3g-2Dvo09nj-14">
          <mxGeometry y="164" width="160" height="26" as="geometry" />
        </mxCell>
        <mxCell id="viqxkSpvM3g-2Dvo09nj-22" value="- user_order_page()" style="text;align=left;verticalAlign=top;spacingLeft=4;spacingRight=4;overflow=hidden;rotatable=0;points=[[0,0.5],[1,0.5]];portConstraint=eastwest;rounded=0;shadow=0;html=0;" vertex="1" parent="viqxkSpvM3g-2Dvo09nj-14">
          <mxGeometry y="190" width="160" height="26" as="geometry" />
        </mxCell>
        <mxCell id="viqxkSpvM3g-2Dvo09nj-23" value="+ add_to_cart()" style="text;align=left;verticalAlign=top;spacingLeft=4;spacingRight=4;overflow=hidden;rotatable=0;points=[[0,0.5],[1,0.5]];portConstraint=eastwest;rounded=0;shadow=0;html=0;" vertex="1" parent="viqxkSpvM3g-2Dvo09nj-14">
          <mxGeometry y="216" width="160" height="26" as="geometry" />
        </mxCell>
        <mxCell id="viqxkSpvM3g-2Dvo09nj-24" value="+ remove_from_cart()" style="text;align=left;verticalAlign=top;spacingLeft=4;spacingRight=4;overflow=hidden;rotatable=0;points=[[0,0.5],[1,0.5]];portConstraint=eastwest;rounded=0;shadow=0;html=0;" vertex="1" parent="viqxkSpvM3g-2Dvo09nj-14">
          <mxGeometry y="242" width="160" height="26" as="geometry" />
        </mxCell>
        <mxCell id="viqxkSpvM3g-2Dvo09nj-25" value="+ post_comment()" style="text;align=left;verticalAlign=top;spacingLeft=4;spacingRight=4;overflow=hidden;rotatable=0;points=[[0,0.5],[1,0.5]];portConstraint=eastwest;rounded=0;shadow=0;html=0;" vertex="1" parent="viqxkSpvM3g-2Dvo09nj-14">
          <mxGeometry y="268" width="160" height="28" as="geometry" />
        </mxCell>
        <mxCell id="viqxkSpvM3g-2Dvo09nj-26" value="+ createOrder()" style="text;align=left;verticalAlign=top;spacingLeft=4;spacingRight=4;overflow=hidden;rotatable=0;points=[[0,0.5],[1,0.5]];portConstraint=eastwest;" vertex="1" parent="viqxkSpvM3g-2Dvo09nj-14">
          <mxGeometry y="296" width="160" height="26" as="geometry" />
        </mxCell>
        <mxCell id="viqxkSpvM3g-2Dvo09nj-27" value="+ order_history()" style="text;align=left;verticalAlign=top;spacingLeft=4;spacingRight=4;overflow=hidden;rotatable=0;points=[[0,0.5],[1,0.5]];portConstraint=eastwest;rounded=0;shadow=0;html=0;" vertex="1" parent="viqxkSpvM3g-2Dvo09nj-14">
          <mxGeometry y="322" width="160" height="26" as="geometry" />
        </mxCell>
        <mxCell id="viqxkSpvM3g-2Dvo09nj-32" value="Canteens" style="swimlane;fontStyle=0;align=center;verticalAlign=top;childLayout=stackLayout;horizontal=1;startSize=26;horizontalStack=0;resizeParent=1;resizeLast=0;collapsible=1;marginBottom=0;rounded=0;shadow=0;strokeWidth=1;" vertex="1" parent="1">
          <mxGeometry x="480" y="790" width="160" height="326" as="geometry">
            <mxRectangle x="550" y="140" width="160" height="26" as="alternateBounds" />
          </mxGeometry>
        </mxCell>
        <mxCell id="viqxkSpvM3g-2Dvo09nj-33" value="- name: str" style="text;align=left;verticalAlign=top;spacingLeft=4;spacingRight=4;overflow=hidden;rotatable=0;points=[[0,0.5],[1,0.5]];portConstraint=eastwest;" vertex="1" parent="viqxkSpvM3g-2Dvo09nj-32">
          <mxGeometry y="26" width="160" height="26" as="geometry" />
        </mxCell>
        <mxCell id="viqxkSpvM3g-2Dvo09nj-34" value="- longitude: str" style="text;align=left;verticalAlign=top;spacingLeft=4;spacingRight=4;overflow=hidden;rotatable=0;points=[[0,0.5],[1,0.5]];portConstraint=eastwest;rounded=0;shadow=0;html=0;" vertex="1" parent="viqxkSpvM3g-2Dvo09nj-32">
          <mxGeometry y="52" width="160" height="26" as="geometry" />
        </mxCell>
        <mxCell id="viqxkSpvM3g-2Dvo09nj-35" value="- latitude: str" style="text;align=left;verticalAlign=top;spacingLeft=4;spacingRight=4;overflow=hidden;rotatable=0;points=[[0,0.5],[1,0.5]];portConstraint=eastwest;rounded=0;shadow=0;html=0;" vertex="1" parent="viqxkSpvM3g-2Dvo09nj-32">
          <mxGeometry y="78" width="160" height="26" as="geometry" />
        </mxCell>
        <mxCell id="viqxkSpvM3g-2Dvo09nj-36" value="- open_at: str" style="text;align=left;verticalAlign=top;spacingLeft=4;spacingRight=4;overflow=hidden;rotatable=0;points=[[0,0.5],[1,0.5]];portConstraint=eastwest;rounded=0;shadow=0;html=0;" vertex="1" parent="viqxkSpvM3g-2Dvo09nj-32">
          <mxGeometry y="104" width="160" height="26" as="geometry" />
        </mxCell>
        <mxCell id="viqxkSpvM3g-2Dvo09nj-37" value="- close_at: str" style="text;align=left;verticalAlign=top;spacingLeft=4;spacingRight=4;overflow=hidden;rotatable=0;points=[[0,0.5],[1,0.5]];portConstraint=eastwest;rounded=0;shadow=0;html=0;" vertex="1" parent="viqxkSpvM3g-2Dvo09nj-32">
          <mxGeometry y="130" width="160" height="26" as="geometry" />
        </mxCell>
        <mxCell id="viqxkSpvM3g-2Dvo09nj-38" value="- capacity: int" style="text;align=left;verticalAlign=top;spacingLeft=4;spacingRight=4;overflow=hidden;rotatable=0;points=[[0,0.5],[1,0.5]];portConstraint=eastwest;rounded=0;shadow=0;html=0;" vertex="1" parent="viqxkSpvM3g-2Dvo09nj-32">
          <mxGeometry y="156" width="160" height="26" as="geometry" />
        </mxCell>
        <mxCell id="viqxkSpvM3g-2Dvo09nj-39" value="- menu: list" style="text;align=left;verticalAlign=top;spacingLeft=4;spacingRight=4;overflow=hidden;rotatable=0;points=[[0,0.5],[1,0.5]];portConstraint=eastwest;rounded=0;shadow=0;html=0;" vertex="1" parent="viqxkSpvM3g-2Dvo09nj-32">
          <mxGeometry y="182" width="160" height="26" as="geometry" />
        </mxCell>
        <mxCell id="viqxkSpvM3g-2Dvo09nj-40" value="- image_path:str" style="text;align=left;verticalAlign=top;spacingLeft=4;spacingRight=4;overflow=hidden;rotatable=0;points=[[0,0.5],[1,0.5]];portConstraint=eastwest;rounded=0;shadow=0;html=0;" vertex="1" parent="viqxkSpvM3g-2Dvo09nj-32">
          <mxGeometry y="208" width="160" height="26" as="geometry" />
        </mxCell>
        <mxCell id="viqxkSpvM3g-2Dvo09nj-41" value="- active_set: objectID" style="text;align=left;verticalAlign=top;spacingLeft=4;spacingRight=4;overflow=hidden;rotatable=0;points=[[0,0.5],[1,0.5]];portConstraint=eastwest;rounded=0;shadow=0;html=0;" vertex="1" parent="viqxkSpvM3g-2Dvo09nj-32">
          <mxGeometry y="234" width="160" height="26" as="geometry" />
        </mxCell>
        <mxCell id="viqxkSpvM3g-2Dvo09nj-42" value="" style="line;html=1;strokeWidth=1;align=left;verticalAlign=middle;spacingTop=-1;spacingLeft=3;spacingRight=3;rotatable=0;labelPosition=right;points=[];portConstraint=eastwest;" vertex="1" parent="viqxkSpvM3g-2Dvo09nj-32">
          <mxGeometry y="260" width="160" height="8" as="geometry" />
        </mxCell>
        <mxCell id="viqxkSpvM3g-2Dvo09nj-43" value="+ to_json(): dict" style="text;align=left;verticalAlign=top;spacingLeft=4;spacingRight=4;overflow=hidden;rotatable=0;points=[[0,0.5],[1,0.5]];portConstraint=eastwest;" vertex="1" parent="viqxkSpvM3g-2Dvo09nj-32">
          <mxGeometry y="268" width="160" height="26" as="geometry" />
        </mxCell>
        <mxCell id="viqxkSpvM3g-2Dvo09nj-44" value="+ template_object(): dict" style="text;align=left;verticalAlign=top;spacingLeft=4;spacingRight=4;overflow=hidden;rotatable=0;points=[[0,0.5],[1,0.5]];portConstraint=eastwest;" vertex="1" parent="viqxkSpvM3g-2Dvo09nj-32">
          <mxGeometry y="294" width="160" height="26" as="geometry" />
        </mxCell>
        <mxCell id="viqxkSpvM3g-2Dvo09nj-140" style="edgeStyle=orthogonalEdgeStyle;rounded=0;orthogonalLoop=1;jettySize=auto;html=1;exitX=0.5;exitY=1;exitDx=0;exitDy=0;entryX=0.5;entryY=0;entryDx=0;entryDy=0;startArrow=none;startFill=0;endArrow=diamond;endFill=0;" edge="1" parent="1" source="viqxkSpvM3g-2Dvo09nj-51" target="viqxkSpvM3g-2Dvo09nj-32">
          <mxGeometry relative="1" as="geometry" />
        </mxCell>
        <mxCell id="viqxkSpvM3g-2Dvo09nj-51" value="Comment" style="swimlane;fontStyle=0;align=center;verticalAlign=top;childLayout=stackLayout;horizontal=1;startSize=26;horizontalStack=0;resizeParent=1;resizeLast=0;collapsible=1;marginBottom=0;rounded=0;shadow=0;strokeWidth=1;" vertex="1" parent="1">
          <mxGeometry x="100" y="490" width="172" height="220" as="geometry">
            <mxRectangle x="550" y="140" width="160" height="26" as="alternateBounds" />
          </mxGeometry>
        </mxCell>
        <mxCell id="viqxkSpvM3g-2Dvo09nj-52" value="- at_time: datetime" style="text;align=left;verticalAlign=top;spacingLeft=4;spacingRight=4;overflow=hidden;rotatable=0;points=[[0,0.5],[1,0.5]];portConstraint=eastwest;" vertex="1" parent="viqxkSpvM3g-2Dvo09nj-51">
          <mxGeometry y="26" width="172" height="26" as="geometry" />
        </mxCell>
        <mxCell id="viqxkSpvM3g-2Dvo09nj-53" value="- by_user: objectID" style="text;align=left;verticalAlign=top;spacingLeft=4;spacingRight=4;overflow=hidden;rotatable=0;points=[[0,0.5],[1,0.5]];portConstraint=eastwest;rounded=0;shadow=0;html=0;" vertex="1" parent="viqxkSpvM3g-2Dvo09nj-51">
          <mxGeometry y="52" width="172" height="26" as="geometry" />
        </mxCell>
        <mxCell id="viqxkSpvM3g-2Dvo09nj-54" value="- at_canteen: objectID" style="text;align=left;verticalAlign=top;spacingLeft=4;spacingRight=4;overflow=hidden;rotatable=0;points=[[0,0.5],[1,0.5]];portConstraint=eastwest;rounded=0;shadow=0;html=0;" vertex="1" parent="viqxkSpvM3g-2Dvo09nj-51">
          <mxGeometry y="78" width="172" height="26" as="geometry" />
        </mxCell>
        <mxCell id="viqxkSpvM3g-2Dvo09nj-55" value="- rating: int" style="text;align=left;verticalAlign=top;spacingLeft=4;spacingRight=4;overflow=hidden;rotatable=0;points=[[0,0.5],[1,0.5]];portConstraint=eastwest;rounded=0;shadow=0;html=0;" vertex="1" parent="viqxkSpvM3g-2Dvo09nj-51">
          <mxGeometry y="104" width="172" height="26" as="geometry" />
        </mxCell>
        <mxCell id="viqxkSpvM3g-2Dvo09nj-56" value="- paragraph: str" style="text;align=left;verticalAlign=top;spacingLeft=4;spacingRight=4;overflow=hidden;rotatable=0;points=[[0,0.5],[1,0.5]];portConstraint=eastwest;rounded=0;shadow=0;html=0;" vertex="1" parent="viqxkSpvM3g-2Dvo09nj-51">
          <mxGeometry y="130" width="172" height="26" as="geometry" />
        </mxCell>
        <mxCell id="viqxkSpvM3g-2Dvo09nj-57" value="" style="line;html=1;strokeWidth=1;align=left;verticalAlign=middle;spacingTop=-1;spacingLeft=3;spacingRight=3;rotatable=0;labelPosition=right;points=[];portConstraint=eastwest;" vertex="1" parent="viqxkSpvM3g-2Dvo09nj-51">
          <mxGeometry y="156" width="172" height="8" as="geometry" />
        </mxCell>
        <mxCell id="viqxkSpvM3g-2Dvo09nj-58" value="+ to_json(): dict" style="text;align=left;verticalAlign=top;spacingLeft=4;spacingRight=4;overflow=hidden;rotatable=0;points=[[0,0.5],[1,0.5]];portConstraint=eastwest;" vertex="1" parent="viqxkSpvM3g-2Dvo09nj-51">
          <mxGeometry y="164" width="172" height="26" as="geometry" />
        </mxCell>
        <mxCell id="viqxkSpvM3g-2Dvo09nj-59" value="+ template_object(): dict" style="text;align=left;verticalAlign=top;spacingLeft=4;spacingRight=4;overflow=hidden;rotatable=0;points=[[0,0.5],[1,0.5]];portConstraint=eastwest;" vertex="1" parent="viqxkSpvM3g-2Dvo09nj-51">
          <mxGeometry y="190" width="172" height="26" as="geometry" />
        </mxCell>
        <mxCell id="viqxkSpvM3g-2Dvo09nj-145" style="edgeStyle=orthogonalEdgeStyle;rounded=0;orthogonalLoop=1;jettySize=auto;html=1;exitX=0.483;exitY=1;exitDx=0;exitDy=0;startArrow=none;startFill=0;endArrow=none;endFill=0;exitPerimeter=0;" edge="1" parent="1" source="viqxkSpvM3g-2Dvo09nj-69">
          <mxGeometry relative="1" as="geometry">
            <mxPoint x="740" y="750" as="targetPoint" />
            <Array as="points">
              <mxPoint x="933" y="750" />
            </Array>
          </mxGeometry>
        </mxCell>
        <mxCell id="viqxkSpvM3g-2Dvo09nj-60" value="Order" style="swimlane;fontStyle=0;align=center;verticalAlign=top;childLayout=stackLayout;horizontal=1;startSize=26;horizontalStack=0;resizeParent=1;resizeLast=0;collapsible=1;marginBottom=0;rounded=0;shadow=0;strokeWidth=1;" vertex="1" parent="1">
          <mxGeometry x="850" y="490" width="172" height="242" as="geometry">
            <mxRectangle x="550" y="140" width="160" height="26" as="alternateBounds" />
          </mxGeometry>
        </mxCell>
        <mxCell id="viqxkSpvM3g-2Dvo09nj-61" value="- at_time: datetime" style="text;align=left;verticalAlign=top;spacingLeft=4;spacingRight=4;overflow=hidden;rotatable=0;points=[[0,0.5],[1,0.5]];portConstraint=eastwest;" vertex="1" parent="viqxkSpvM3g-2Dvo09nj-60">
          <mxGeometry y="26" width="172" height="26" as="geometry" />
        </mxCell>
        <mxCell id="viqxkSpvM3g-2Dvo09nj-62" value="- by_user: objectID" style="text;align=left;verticalAlign=top;spacingLeft=4;spacingRight=4;overflow=hidden;rotatable=0;points=[[0,0.5],[1,0.5]];portConstraint=eastwest;rounded=0;shadow=0;html=0;" vertex="1" parent="viqxkSpvM3g-2Dvo09nj-60">
          <mxGeometry y="52" width="172" height="26" as="geometry" />
        </mxCell>
        <mxCell id="viqxkSpvM3g-2Dvo09nj-63" value="- at_canteen: objectID" style="text;align=left;verticalAlign=top;spacingLeft=4;spacingRight=4;overflow=hidden;rotatable=0;points=[[0,0.5],[1,0.5]];portConstraint=eastwest;rounded=0;shadow=0;html=0;" vertex="1" parent="viqxkSpvM3g-2Dvo09nj-60">
          <mxGeometry y="78" width="172" height="26" as="geometry" />
        </mxCell>
        <mxCell id="viqxkSpvM3g-2Dvo09nj-64" value="- dishes: list" style="text;align=left;verticalAlign=top;spacingLeft=4;spacingRight=4;overflow=hidden;rotatable=0;points=[[0,0.5],[1,0.5]];portConstraint=eastwest;rounded=0;shadow=0;html=0;" vertex="1" parent="viqxkSpvM3g-2Dvo09nj-60">
          <mxGeometry y="104" width="172" height="26" as="geometry" />
        </mxCell>
        <mxCell id="viqxkSpvM3g-2Dvo09nj-65" value="- total_price: float" style="text;align=left;verticalAlign=top;spacingLeft=4;spacingRight=4;overflow=hidden;rotatable=0;points=[[0,0.5],[1,0.5]];portConstraint=eastwest;rounded=0;shadow=0;html=0;" vertex="1" parent="viqxkSpvM3g-2Dvo09nj-60">
          <mxGeometry y="130" width="172" height="26" as="geometry" />
        </mxCell>
        <mxCell id="viqxkSpvM3g-2Dvo09nj-66" value="- order_status: str" style="text;align=left;verticalAlign=top;spacingLeft=4;spacingRight=4;overflow=hidden;rotatable=0;points=[[0,0.5],[1,0.5]];portConstraint=eastwest;rounded=0;shadow=0;html=0;" vertex="1" parent="viqxkSpvM3g-2Dvo09nj-60">
          <mxGeometry y="156" width="172" height="26" as="geometry" />
        </mxCell>
        <mxCell id="viqxkSpvM3g-2Dvo09nj-67" value="" style="line;html=1;strokeWidth=1;align=left;verticalAlign=middle;spacingTop=-1;spacingLeft=3;spacingRight=3;rotatable=0;labelPosition=right;points=[];portConstraint=eastwest;" vertex="1" parent="viqxkSpvM3g-2Dvo09nj-60">
          <mxGeometry y="182" width="172" height="8" as="geometry" />
        </mxCell>
        <mxCell id="viqxkSpvM3g-2Dvo09nj-68" value="+ to_json(): dict" style="text;align=left;verticalAlign=top;spacingLeft=4;spacingRight=4;overflow=hidden;rotatable=0;points=[[0,0.5],[1,0.5]];portConstraint=eastwest;" vertex="1" parent="viqxkSpvM3g-2Dvo09nj-60">
          <mxGeometry y="190" width="172" height="26" as="geometry" />
        </mxCell>
        <mxCell id="viqxkSpvM3g-2Dvo09nj-69" value="+ template_object(): dict" style="text;align=left;verticalAlign=top;spacingLeft=4;spacingRight=4;overflow=hidden;rotatable=0;points=[[0,0.5],[1,0.5]];portConstraint=eastwest;" vertex="1" parent="viqxkSpvM3g-2Dvo09nj-60">
          <mxGeometry y="216" width="172" height="26" as="geometry" />
        </mxCell>
        <mxCell id="viqxkSpvM3g-2Dvo09nj-79" value="0..*" style="edgeLabel;resizable=0;html=1;align=right;verticalAlign=top;" connectable="0" vertex="1" parent="1">
          <mxGeometry x="1246" y="775.0020052739832" as="geometry" />
        </mxCell>
        <mxCell id="viqxkSpvM3g-2Dvo09nj-148" style="edgeStyle=orthogonalEdgeStyle;rounded=0;orthogonalLoop=1;jettySize=auto;html=1;exitX=-0.008;exitY=0.324;exitDx=0;exitDy=0;startArrow=none;startFill=0;endArrow=diamond;endFill=1;exitPerimeter=0;" edge="1" parent="1" source="viqxkSpvM3g-2Dvo09nj-88">
          <mxGeometry relative="1" as="geometry">
            <mxPoint x="610" y="640" as="targetPoint" />
          </mxGeometry>
        </mxCell>
        <mxCell id="viqxkSpvM3g-2Dvo09nj-80" value="Dishes" style="swimlane;fontStyle=0;align=center;verticalAlign=top;childLayout=stackLayout;horizontal=1;startSize=26;horizontalStack=0;resizeParent=1;resizeLast=0;collapsible=1;marginBottom=0;rounded=0;shadow=0;strokeWidth=1;" vertex="1" parent="1">
          <mxGeometry x="660" y="490" width="170" height="230" as="geometry">
            <mxRectangle x="130" y="380" width="160" height="26" as="alternateBounds" />
          </mxGeometry>
        </mxCell>
        <mxCell id="viqxkSpvM3g-2Dvo09nj-81" value="- name: str" style="text;align=left;verticalAlign=top;spacingLeft=4;spacingRight=4;overflow=hidden;rotatable=0;points=[[0,0.5],[1,0.5]];portConstraint=eastwest;rounded=0;shadow=0;html=0;" vertex="1" parent="viqxkSpvM3g-2Dvo09nj-80">
          <mxGeometry y="26" width="170" height="26" as="geometry" />
        </mxCell>
        <mxCell id="viqxkSpvM3g-2Dvo09nj-82" value="- at_canteen: objectID" style="text;align=left;verticalAlign=top;spacingLeft=4;spacingRight=4;overflow=hidden;rotatable=0;points=[[0,0.5],[1,0.5]];portConstraint=eastwest;rounded=0;shadow=0;html=0;" vertex="1" parent="viqxkSpvM3g-2Dvo09nj-80">
          <mxGeometry y="52" width="170" height="26" as="geometry" />
        </mxCell>
        <mxCell id="viqxkSpvM3g-2Dvo09nj-83" value="- price: float" style="text;align=left;verticalAlign=top;spacingLeft=4;spacingRight=4;overflow=hidden;rotatable=0;points=[[0,0.5],[1,0.5]];portConstraint=eastwest;rounded=0;shadow=0;html=0;" vertex="1" parent="viqxkSpvM3g-2Dvo09nj-80">
          <mxGeometry y="78" width="170" height="26" as="geometry" />
        </mxCell>
        <mxCell id="viqxkSpvM3g-2Dvo09nj-84" value="- in_type: objectID" style="text;align=left;verticalAlign=top;spacingLeft=4;spacingRight=4;overflow=hidden;rotatable=0;points=[[0,0.5],[1,0.5]];portConstraint=eastwest;rounded=0;shadow=0;html=0;" vertex="1" parent="viqxkSpvM3g-2Dvo09nj-80">
          <mxGeometry y="104" width="170" height="26" as="geometry" />
        </mxCell>
        <mxCell id="viqxkSpvM3g-2Dvo09nj-85" value="- ingredients: list of str" style="text;align=left;verticalAlign=top;spacingLeft=4;spacingRight=4;overflow=hidden;rotatable=0;points=[[0,0.5],[1,0.5]];portConstraint=eastwest;rounded=0;shadow=0;html=0;" vertex="1" parent="viqxkSpvM3g-2Dvo09nj-80">
          <mxGeometry y="130" width="170" height="26" as="geometry" />
        </mxCell>
        <mxCell id="viqxkSpvM3g-2Dvo09nj-86" value="- image_path: str" style="text;align=left;verticalAlign=top;spacingLeft=4;spacingRight=4;overflow=hidden;rotatable=0;points=[[0,0.5],[1,0.5]];portConstraint=eastwest;rounded=0;shadow=0;html=0;" vertex="1" parent="viqxkSpvM3g-2Dvo09nj-80">
          <mxGeometry y="156" width="170" height="26" as="geometry" />
        </mxCell>
        <mxCell id="viqxkSpvM3g-2Dvo09nj-87" value="" style="line;html=1;strokeWidth=1;align=left;verticalAlign=middle;spacingTop=-1;spacingLeft=3;spacingRight=3;rotatable=0;labelPosition=right;points=[];portConstraint=eastwest;" vertex="1" parent="viqxkSpvM3g-2Dvo09nj-80">
          <mxGeometry y="182" width="170" height="8" as="geometry" />
        </mxCell>
        <mxCell id="viqxkSpvM3g-2Dvo09nj-88" value="Details is omitted in this part" style="text;align=left;verticalAlign=top;spacingLeft=4;spacingRight=4;overflow=hidden;rotatable=0;points=[[0,0.5],[1,0.5]];portConstraint=eastwest;fontStyle=0" vertex="1" parent="viqxkSpvM3g-2Dvo09nj-80">
          <mxGeometry y="190" width="170" height="26" as="geometry" />
        </mxCell>
        <mxCell id="viqxkSpvM3g-2Dvo09nj-143" style="edgeStyle=orthogonalEdgeStyle;rounded=0;orthogonalLoop=1;jettySize=auto;html=1;exitX=0.5;exitY=1;exitDx=0;exitDy=0;startArrow=none;startFill=0;endArrow=none;endFill=0;" edge="1" parent="1" source="viqxkSpvM3g-2Dvo09nj-89">
          <mxGeometry relative="1" as="geometry">
            <mxPoint x="559.8947368421052" y="750" as="targetPoint" />
          </mxGeometry>
        </mxCell>
        <mxCell id="viqxkSpvM3g-2Dvo09nj-89" value="Types" style="swimlane;fontStyle=0;align=center;verticalAlign=top;childLayout=stackLayout;horizontal=1;startSize=26;horizontalStack=0;resizeParent=1;resizeLast=0;collapsible=1;marginBottom=0;rounded=0;shadow=0;strokeWidth=1;" vertex="1" parent="1">
          <mxGeometry x="480" y="490" width="160" height="150" as="geometry">
            <mxRectangle x="130" y="380" width="160" height="26" as="alternateBounds" />
          </mxGeometry>
        </mxCell>
        <mxCell id="viqxkSpvM3g-2Dvo09nj-90" value="- name: str" style="text;align=left;verticalAlign=top;spacingLeft=4;spacingRight=4;overflow=hidden;rotatable=0;points=[[0,0.5],[1,0.5]];portConstraint=eastwest;rounded=0;shadow=0;html=0;" vertex="1" parent="viqxkSpvM3g-2Dvo09nj-89">
          <mxGeometry y="26" width="160" height="26" as="geometry" />
        </mxCell>
        <mxCell id="viqxkSpvM3g-2Dvo09nj-91" value="- at_canteen: objectID" style="text;align=left;verticalAlign=top;spacingLeft=4;spacingRight=4;overflow=hidden;rotatable=0;points=[[0,0.5],[1,0.5]];portConstraint=eastwest;rounded=0;shadow=0;html=0;" vertex="1" parent="viqxkSpvM3g-2Dvo09nj-89">
          <mxGeometry y="52" width="160" height="26" as="geometry" />
        </mxCell>
        <mxCell id="viqxkSpvM3g-2Dvo09nj-92" value="- dish: list of objectID" style="text;align=left;verticalAlign=top;spacingLeft=4;spacingRight=4;overflow=hidden;rotatable=0;points=[[0,0.5],[1,0.5]];portConstraint=eastwest;rounded=0;shadow=0;html=0;" vertex="1" parent="viqxkSpvM3g-2Dvo09nj-89">
          <mxGeometry y="78" width="160" height="26" as="geometry" />
        </mxCell>
        <mxCell id="viqxkSpvM3g-2Dvo09nj-93" value="" style="line;html=1;strokeWidth=1;align=left;verticalAlign=middle;spacingTop=-1;spacingLeft=3;spacingRight=3;rotatable=0;labelPosition=right;points=[];portConstraint=eastwest;" vertex="1" parent="viqxkSpvM3g-2Dvo09nj-89">
          <mxGeometry y="104" width="160" height="8" as="geometry" />
        </mxCell>
        <mxCell id="viqxkSpvM3g-2Dvo09nj-94" value="Details is omitted in this part" style="text;align=left;verticalAlign=top;spacingLeft=4;spacingRight=4;overflow=hidden;rotatable=0;points=[[0,0.5],[1,0.5]];portConstraint=eastwest;fontStyle=0" vertex="1" parent="viqxkSpvM3g-2Dvo09nj-89">
          <mxGeometry y="112" width="160" height="26" as="geometry" />
        </mxCell>
        <mxCell id="viqxkSpvM3g-2Dvo09nj-141" style="edgeStyle=orthogonalEdgeStyle;rounded=0;orthogonalLoop=1;jettySize=auto;html=1;exitX=0.5;exitY=1;exitDx=0;exitDy=0;startArrow=none;startFill=0;endArrow=none;endFill=0;" edge="1" parent="1" source="viqxkSpvM3g-2Dvo09nj-97">
          <mxGeometry relative="1" as="geometry">
            <mxPoint x="374.52631578947376" y="750" as="targetPoint" />
          </mxGeometry>
        </mxCell>
        <mxCell id="viqxkSpvM3g-2Dvo09nj-97" value="Set" style="swimlane;fontStyle=0;align=center;verticalAlign=top;childLayout=stackLayout;horizontal=1;startSize=26;horizontalStack=0;resizeParent=1;resizeLast=0;collapsible=1;marginBottom=0;rounded=0;shadow=0;strokeWidth=1;" vertex="1" parent="1">
          <mxGeometry x="290" y="490" width="170" height="150" as="geometry">
            <mxRectangle x="130" y="380" width="160" height="26" as="alternateBounds" />
          </mxGeometry>
        </mxCell>
        <mxCell id="viqxkSpvM3g-2Dvo09nj-98" value="- name: str" style="text;align=left;verticalAlign=top;spacingLeft=4;spacingRight=4;overflow=hidden;rotatable=0;points=[[0,0.5],[1,0.5]];portConstraint=eastwest;rounded=0;shadow=0;html=0;" vertex="1" parent="viqxkSpvM3g-2Dvo09nj-97">
          <mxGeometry y="26" width="170" height="26" as="geometry" />
        </mxCell>
        <mxCell id="viqxkSpvM3g-2Dvo09nj-99" value="- at_canteen: objectID" style="text;align=left;verticalAlign=top;spacingLeft=4;spacingRight=4;overflow=hidden;rotatable=0;points=[[0,0.5],[1,0.5]];portConstraint=eastwest;rounded=0;shadow=0;html=0;" vertex="1" parent="viqxkSpvM3g-2Dvo09nj-97">
          <mxGeometry y="52" width="170" height="26" as="geometry" />
        </mxCell>
        <mxCell id="viqxkSpvM3g-2Dvo09nj-100" value="- types: dict of list of objectID" style="text;align=left;verticalAlign=top;spacingLeft=4;spacingRight=4;overflow=hidden;rotatable=0;points=[[0,0.5],[1,0.5]];portConstraint=eastwest;rounded=0;shadow=0;html=0;" vertex="1" parent="viqxkSpvM3g-2Dvo09nj-97">
          <mxGeometry y="78" width="170" height="26" as="geometry" />
        </mxCell>
        <mxCell id="viqxkSpvM3g-2Dvo09nj-101" value="" style="line;html=1;strokeWidth=1;align=left;verticalAlign=middle;spacingTop=-1;spacingLeft=3;spacingRight=3;rotatable=0;labelPosition=right;points=[];portConstraint=eastwest;" vertex="1" parent="viqxkSpvM3g-2Dvo09nj-97">
          <mxGeometry y="104" width="170" height="8" as="geometry" />
        </mxCell>
        <mxCell id="viqxkSpvM3g-2Dvo09nj-102" value="Details is omitted in this part" style="text;align=left;verticalAlign=top;spacingLeft=4;spacingRight=4;overflow=hidden;rotatable=0;points=[[0,0.5],[1,0.5]];portConstraint=eastwest;fontStyle=0" vertex="1" parent="viqxkSpvM3g-2Dvo09nj-97">
          <mxGeometry y="112" width="170" height="26" as="geometry" />
        </mxCell>
        <mxCell id="viqxkSpvM3g-2Dvo09nj-134" style="edgeStyle=orthogonalEdgeStyle;rounded=0;orthogonalLoop=1;jettySize=auto;html=1;exitX=0.5;exitY=0;exitDx=0;exitDy=0;endArrow=none;endFill=0;" edge="1" parent="1" source="viqxkSpvM3g-2Dvo09nj-106">
          <mxGeometry relative="1" as="geometry">
            <mxPoint x="660" y="20" as="targetPoint" />
          </mxGeometry>
        </mxCell>
        <mxCell id="viqxkSpvM3g-2Dvo09nj-106" value="Canteen Owner" style="swimlane;fontStyle=0;align=center;verticalAlign=top;childLayout=stackLayout;horizontal=1;startSize=26;horizontalStack=0;resizeParent=1;resizeLast=0;collapsible=1;marginBottom=0;rounded=0;shadow=0;strokeWidth=1;" vertex="1" parent="1">
          <mxGeometry x="680" y="40" width="160" height="294" as="geometry">
            <mxRectangle x="340" y="380" width="170" height="26" as="alternateBounds" />
          </mxGeometry>
        </mxCell>
        <mxCell id="viqxkSpvM3g-2Dvo09nj-107" value="- auth_type: 1" style="text;align=left;verticalAlign=top;spacingLeft=4;spacingRight=4;overflow=hidden;rotatable=0;points=[[0,0.5],[1,0.5]];portConstraint=eastwest;rounded=0;shadow=0;html=0;" vertex="1" parent="viqxkSpvM3g-2Dvo09nj-106">
          <mxGeometry y="26" width="160" height="26" as="geometry" />
        </mxCell>
        <mxCell id="viqxkSpvM3g-2Dvo09nj-108" value="" style="line;html=1;strokeWidth=1;align=left;verticalAlign=middle;spacingTop=-1;spacingLeft=3;spacingRight=3;rotatable=0;labelPosition=right;points=[];portConstraint=eastwest;" vertex="1" parent="viqxkSpvM3g-2Dvo09nj-106">
          <mxGeometry y="52" width="160" height="8" as="geometry" />
        </mxCell>
        <mxCell id="viqxkSpvM3g-2Dvo09nj-109" value="- order_page()" style="text;align=left;verticalAlign=top;spacingLeft=4;spacingRight=4;overflow=hidden;rotatable=0;points=[[0,0.5],[1,0.5]];portConstraint=eastwest;rounded=0;shadow=0;html=0;" vertex="1" parent="viqxkSpvM3g-2Dvo09nj-106">
          <mxGeometry y="60" width="160" height="26" as="geometry" />
        </mxCell>
        <mxCell id="viqxkSpvM3g-2Dvo09nj-110" value="- menu_page()" style="text;align=left;verticalAlign=top;spacingLeft=4;spacingRight=4;overflow=hidden;rotatable=0;points=[[0,0.5],[1,0.5]];portConstraint=eastwest;rounded=0;shadow=0;html=0;" vertex="1" parent="viqxkSpvM3g-2Dvo09nj-106">
          <mxGeometry y="86" width="160" height="26" as="geometry" />
        </mxCell>
        <mxCell id="viqxkSpvM3g-2Dvo09nj-111" value="- finish_order()" style="text;align=left;verticalAlign=top;spacingLeft=4;spacingRight=4;overflow=hidden;rotatable=0;points=[[0,0.5],[1,0.5]];portConstraint=eastwest;rounded=0;shadow=0;html=0;" vertex="1" parent="viqxkSpvM3g-2Dvo09nj-106">
          <mxGeometry y="112" width="160" height="26" as="geometry" />
        </mxCell>
        <mxCell id="viqxkSpvM3g-2Dvo09nj-112" value="- add_set()" style="text;align=left;verticalAlign=top;spacingLeft=4;spacingRight=4;overflow=hidden;rotatable=0;points=[[0,0.5],[1,0.5]];portConstraint=eastwest;rounded=0;shadow=0;html=0;" vertex="1" parent="viqxkSpvM3g-2Dvo09nj-106">
          <mxGeometry y="138" width="160" height="26" as="geometry" />
        </mxCell>
        <mxCell id="viqxkSpvM3g-2Dvo09nj-113" value="- add_type()" style="text;align=left;verticalAlign=top;spacingLeft=4;spacingRight=4;overflow=hidden;rotatable=0;points=[[0,0.5],[1,0.5]];portConstraint=eastwest;rounded=0;shadow=0;html=0;" vertex="1" parent="viqxkSpvM3g-2Dvo09nj-106">
          <mxGeometry y="164" width="160" height="26" as="geometry" />
        </mxCell>
        <mxCell id="viqxkSpvM3g-2Dvo09nj-114" value="- edit_set()" style="text;align=left;verticalAlign=top;spacingLeft=4;spacingRight=4;overflow=hidden;rotatable=0;points=[[0,0.5],[1,0.5]];portConstraint=eastwest;rounded=0;shadow=0;html=0;" vertex="1" parent="viqxkSpvM3g-2Dvo09nj-106">
          <mxGeometry y="190" width="160" height="26" as="geometry" />
        </mxCell>
        <mxCell id="viqxkSpvM3g-2Dvo09nj-115" value="- add_menu()" style="text;align=left;verticalAlign=top;spacingLeft=4;spacingRight=4;overflow=hidden;rotatable=0;points=[[0,0.5],[1,0.5]];portConstraint=eastwest;rounded=0;shadow=0;html=0;" vertex="1" parent="viqxkSpvM3g-2Dvo09nj-106">
          <mxGeometry y="216" width="160" height="26" as="geometry" />
        </mxCell>
        <mxCell id="viqxkSpvM3g-2Dvo09nj-116" value="- delete_item()" style="text;align=left;verticalAlign=top;spacingLeft=4;spacingRight=4;overflow=hidden;rotatable=0;points=[[0,0.5],[1,0.5]];portConstraint=eastwest;rounded=0;shadow=0;html=0;" vertex="1" parent="viqxkSpvM3g-2Dvo09nj-106">
          <mxGeometry y="242" width="160" height="26" as="geometry" />
        </mxCell>
        <mxCell id="viqxkSpvM3g-2Dvo09nj-117" value="- edit_menu()" style="text;align=left;verticalAlign=top;spacingLeft=4;spacingRight=4;overflow=hidden;rotatable=0;points=[[0,0.5],[1,0.5]];portConstraint=eastwest;rounded=0;shadow=0;html=0;" vertex="1" parent="viqxkSpvM3g-2Dvo09nj-106">
          <mxGeometry y="268" width="160" height="26" as="geometry" />
        </mxCell>
        <mxCell id="viqxkSpvM3g-2Dvo09nj-138" style="edgeStyle=orthogonalEdgeStyle;rounded=0;orthogonalLoop=1;jettySize=auto;html=1;exitX=0.5;exitY=0;exitDx=0;exitDy=0;startArrow=none;startFill=0;endArrow=none;endFill=0;" edge="1" parent="1" source="viqxkSpvM3g-2Dvo09nj-118">
          <mxGeometry relative="1" as="geometry">
            <mxPoint x="359.7142857142858" y="20" as="targetPoint" />
          </mxGeometry>
        </mxCell>
        <mxCell id="viqxkSpvM3g-2Dvo09nj-169" style="edgeStyle=orthogonalEdgeStyle;rounded=0;orthogonalLoop=1;jettySize=auto;html=1;exitX=0.75;exitY=1;exitDx=0;exitDy=0;startArrow=none;startFill=0;endArrow=none;endFill=0;" edge="1" parent="1" source="viqxkSpvM3g-2Dvo09nj-118">
          <mxGeometry relative="1" as="geometry">
            <mxPoint x="400.1111111111111" y="410" as="targetPoint" />
          </mxGeometry>
        </mxCell>
        <mxCell id="viqxkSpvM3g-2Dvo09nj-118" value="Admin" style="swimlane;fontStyle=0;align=center;verticalAlign=top;childLayout=stackLayout;horizontal=1;startSize=26;horizontalStack=0;resizeParent=1;resizeLast=0;collapsible=1;marginBottom=0;rounded=0;shadow=0;strokeWidth=1;" vertex="1" parent="1">
          <mxGeometry x="280" y="40" width="160" height="294" as="geometry">
            <mxRectangle x="340" y="380" width="170" height="26" as="alternateBounds" />
          </mxGeometry>
        </mxCell>
        <mxCell id="viqxkSpvM3g-2Dvo09nj-119" value="- auth_type: 0" style="text;align=left;verticalAlign=top;spacingLeft=4;spacingRight=4;overflow=hidden;rotatable=0;points=[[0,0.5],[1,0.5]];portConstraint=eastwest;rounded=0;shadow=0;html=0;" vertex="1" parent="viqxkSpvM3g-2Dvo09nj-118">
          <mxGeometry y="26" width="160" height="26" as="geometry" />
        </mxCell>
        <mxCell id="viqxkSpvM3g-2Dvo09nj-120" value="" style="line;html=1;strokeWidth=1;align=left;verticalAlign=middle;spacingTop=-1;spacingLeft=3;spacingRight=3;rotatable=0;labelPosition=right;points=[];portConstraint=eastwest;" vertex="1" parent="viqxkSpvM3g-2Dvo09nj-118">
          <mxGeometry y="52" width="160" height="8" as="geometry" />
        </mxCell>
        <mxCell id="viqxkSpvM3g-2Dvo09nj-121" value="- reset_password" style="text;align=left;verticalAlign=top;spacingLeft=4;spacingRight=4;overflow=hidden;rotatable=0;points=[[0,0.5],[1,0.5]];portConstraint=eastwest;rounded=0;shadow=0;html=0;" vertex="1" parent="viqxkSpvM3g-2Dvo09nj-118">
          <mxGeometry y="60" width="160" height="26" as="geometry" />
        </mxCell>
        <mxCell id="viqxkSpvM3g-2Dvo09nj-122" value="- overview_page" style="text;align=left;verticalAlign=top;spacingLeft=4;spacingRight=4;overflow=hidden;rotatable=0;points=[[0,0.5],[1,0.5]];portConstraint=eastwest;rounded=0;shadow=0;html=0;" vertex="1" parent="viqxkSpvM3g-2Dvo09nj-118">
          <mxGeometry y="86" width="160" height="26" as="geometry" />
        </mxCell>
        <mxCell id="viqxkSpvM3g-2Dvo09nj-123" value="- add_data_page" style="text;align=left;verticalAlign=top;spacingLeft=4;spacingRight=4;overflow=hidden;rotatable=0;points=[[0,0.5],[1,0.5]];portConstraint=eastwest;rounded=0;shadow=0;html=0;" vertex="1" parent="viqxkSpvM3g-2Dvo09nj-118">
          <mxGeometry y="112" width="160" height="26" as="geometry" />
        </mxCell>
        <mxCell id="viqxkSpvM3g-2Dvo09nj-124" value="- edit_data_page" style="text;align=left;verticalAlign=top;spacingLeft=4;spacingRight=4;overflow=hidden;rotatable=0;points=[[0,0.5],[1,0.5]];portConstraint=eastwest;rounded=0;shadow=0;html=0;" vertex="1" parent="viqxkSpvM3g-2Dvo09nj-118">
          <mxGeometry y="138" width="160" height="26" as="geometry" />
        </mxCell>
        <mxCell id="viqxkSpvM3g-2Dvo09nj-125" value="- delete_data_page" style="text;align=left;verticalAlign=top;spacingLeft=4;spacingRight=4;overflow=hidden;rotatable=0;points=[[0,0.5],[1,0.5]];portConstraint=eastwest;rounded=0;shadow=0;html=0;" vertex="1" parent="viqxkSpvM3g-2Dvo09nj-118">
          <mxGeometry y="164" width="160" height="26" as="geometry" />
        </mxCell>
        <mxCell id="viqxkSpvM3g-2Dvo09nj-126" value="- overview_canteens_data" style="text;align=left;verticalAlign=top;spacingLeft=4;spacingRight=4;overflow=hidden;rotatable=0;points=[[0,0.5],[1,0.5]];portConstraint=eastwest;rounded=0;shadow=0;html=0;" vertex="1" parent="viqxkSpvM3g-2Dvo09nj-118">
          <mxGeometry y="190" width="160" height="26" as="geometry" />
        </mxCell>
        <mxCell id="viqxkSpvM3g-2Dvo09nj-127" value="- add_canteens_data" style="text;align=left;verticalAlign=top;spacingLeft=4;spacingRight=4;overflow=hidden;rotatable=0;points=[[0,0.5],[1,0.5]];portConstraint=eastwest;rounded=0;shadow=0;html=0;" vertex="1" parent="viqxkSpvM3g-2Dvo09nj-118">
          <mxGeometry y="216" width="160" height="26" as="geometry" />
        </mxCell>
        <mxCell id="viqxkSpvM3g-2Dvo09nj-128" value="- edit_canteens_data" style="text;align=left;verticalAlign=top;spacingLeft=4;spacingRight=4;overflow=hidden;rotatable=0;points=[[0,0.5],[1,0.5]];portConstraint=eastwest;rounded=0;shadow=0;html=0;" vertex="1" parent="viqxkSpvM3g-2Dvo09nj-118">
          <mxGeometry y="242" width="160" height="26" as="geometry" />
        </mxCell>
        <mxCell id="viqxkSpvM3g-2Dvo09nj-129" value="- delete_canteens_data" style="text;align=left;verticalAlign=top;spacingLeft=4;spacingRight=4;overflow=hidden;rotatable=0;points=[[0,0.5],[1,0.5]];portConstraint=eastwest;rounded=0;shadow=0;html=0;" vertex="1" parent="viqxkSpvM3g-2Dvo09nj-118">
          <mxGeometry y="268" width="160" height="22" as="geometry" />
        </mxCell>
        <mxCell id="viqxkSpvM3g-2Dvo09nj-135" value="" style="endArrow=none;html=1;rounded=0;" edge="1" parent="1">
          <mxGeometry width="50" height="50" relative="1" as="geometry">
            <mxPoint x="560" y="20" as="sourcePoint" />
            <mxPoint x="660" y="20" as="targetPoint" />
          </mxGeometry>
        </mxCell>
        <mxCell id="viqxkSpvM3g-2Dvo09nj-136" value="" style="endArrow=none;html=1;rounded=0;" edge="1" parent="1">
          <mxGeometry width="50" height="50" relative="1" as="geometry">
            <mxPoint x="360" y="20" as="sourcePoint" />
            <mxPoint x="460" y="20" as="targetPoint" />
          </mxGeometry>
        </mxCell>
        <mxCell id="viqxkSpvM3g-2Dvo09nj-139" value="" style="endArrow=none;html=1;rounded=0;exitX=0.5;exitY=1;exitDx=0;exitDy=0;exitPerimeter=0;endFill=0;startArrow=block;startFill=0;" edge="1" parent="1" source="viqxkSpvM3g-2Dvo09nj-13">
          <mxGeometry width="50" height="50" relative="1" as="geometry">
            <mxPoint x="550" y="10" as="sourcePoint" />
            <mxPoint x="560" y="20" as="targetPoint" />
          </mxGeometry>
        </mxCell>
        <mxCell id="viqxkSpvM3g-2Dvo09nj-146" value="" style="endArrow=none;html=1;rounded=0;" edge="1" parent="1">
          <mxGeometry width="50" height="50" relative="1" as="geometry">
            <mxPoint x="560" y="750" as="sourcePoint" />
            <mxPoint x="740" y="750" as="targetPoint" />
          </mxGeometry>
        </mxCell>
        <mxCell id="viqxkSpvM3g-2Dvo09nj-149" value="1" style="text;html=1;strokeColor=none;fillColor=none;align=center;verticalAlign=middle;whiteSpace=wrap;rounded=0;" vertex="1" parent="1">
          <mxGeometry x="510" y="760" width="60" height="30" as="geometry" />
        </mxCell>
        <mxCell id="viqxkSpvM3g-2Dvo09nj-150" value="1.." style="text;html=1;strokeColor=none;fillColor=none;align=center;verticalAlign=middle;whiteSpace=wrap;rounded=0;" vertex="1" parent="1">
          <mxGeometry x="360" y="640" width="60" height="30" as="geometry" />
        </mxCell>
        <mxCell id="viqxkSpvM3g-2Dvo09nj-151" value="0.." style="text;html=1;strokeColor=none;fillColor=none;align=center;verticalAlign=middle;whiteSpace=wrap;rounded=0;" vertex="1" parent="1">
          <mxGeometry x="170" y="702" width="60" height="30" as="geometry" />
        </mxCell>
        <mxCell id="viqxkSpvM3g-2Dvo09nj-152" value="0.." style="text;html=1;strokeColor=none;fillColor=none;align=center;verticalAlign=middle;whiteSpace=wrap;rounded=0;" vertex="1" parent="1">
          <mxGeometry x="540" y="640" width="60" height="30" as="geometry" />
        </mxCell>
        <mxCell id="viqxkSpvM3g-2Dvo09nj-154" value="1" style="text;html=1;strokeColor=none;fillColor=none;align=center;verticalAlign=middle;whiteSpace=wrap;rounded=0;" vertex="1" parent="1">
          <mxGeometry x="520" y="460" width="60" height="30" as="geometry" />
        </mxCell>
        <mxCell id="viqxkSpvM3g-2Dvo09nj-155" value="0.." style="text;html=1;strokeColor=none;fillColor=none;align=center;verticalAlign=middle;whiteSpace=wrap;rounded=0;" vertex="1" parent="1">
          <mxGeometry x="920" y="730" width="60" height="30" as="geometry" />
        </mxCell>
        <mxCell id="viqxkSpvM3g-2Dvo09nj-156" style="edgeStyle=orthogonalEdgeStyle;rounded=0;orthogonalLoop=1;jettySize=auto;html=1;exitX=0;exitY=0.5;exitDx=0;exitDy=0;entryX=0.5;entryY=0;entryDx=0;entryDy=0;startArrow=none;startFill=0;endArrow=block;endFill=1;" edge="1" parent="1" source="viqxkSpvM3g-2Dvo09nj-27" target="viqxkSpvM3g-2Dvo09nj-51">
          <mxGeometry relative="1" as="geometry" />
        </mxCell>
        <mxCell id="viqxkSpvM3g-2Dvo09nj-157" value="create" style="edgeLabel;html=1;align=center;verticalAlign=middle;resizable=0;points=[];" vertex="1" connectable="0" parent="viqxkSpvM3g-2Dvo09nj-156">
          <mxGeometry x="-0.0373" y="-2" relative="1" as="geometry">
            <mxPoint as="offset" />
          </mxGeometry>
        </mxCell>
        <mxCell id="viqxkSpvM3g-2Dvo09nj-158" style="edgeStyle=orthogonalEdgeStyle;rounded=0;orthogonalLoop=1;jettySize=auto;html=1;exitX=0;exitY=0.5;exitDx=0;exitDy=0;entryX=0.25;entryY=0;entryDx=0;entryDy=0;startArrow=none;startFill=0;endArrow=none;endFill=0;" edge="1" parent="1" source="viqxkSpvM3g-2Dvo09nj-27" target="viqxkSpvM3g-2Dvo09nj-80">
          <mxGeometry relative="1" as="geometry">
            <Array as="points">
              <mxPoint x="340" y="375" />
              <mxPoint x="340" y="439" />
              <mxPoint x="703" y="439" />
            </Array>
          </mxGeometry>
        </mxCell>
        <mxCell id="viqxkSpvM3g-2Dvo09nj-163" value="buy" style="edgeLabel;html=1;align=center;verticalAlign=middle;resizable=0;points=[];" vertex="1" connectable="0" parent="viqxkSpvM3g-2Dvo09nj-158">
          <mxGeometry x="0.8148" relative="1" as="geometry">
            <mxPoint x="4" y="21" as="offset" />
          </mxGeometry>
        </mxCell>
        <mxCell id="viqxkSpvM3g-2Dvo09nj-160" style="edgeStyle=orthogonalEdgeStyle;rounded=0;orthogonalLoop=1;jettySize=auto;html=1;exitX=0;exitY=0.5;exitDx=0;exitDy=0;entryX=0.5;entryY=0;entryDx=0;entryDy=0;startArrow=none;startFill=0;endArrow=none;endFill=0;" edge="1" parent="1" source="viqxkSpvM3g-2Dvo09nj-27" target="viqxkSpvM3g-2Dvo09nj-60">
          <mxGeometry relative="1" as="geometry">
            <Array as="points">
              <mxPoint x="340" y="375" />
              <mxPoint x="340" y="439" />
              <mxPoint x="936" y="439" />
            </Array>
          </mxGeometry>
        </mxCell>
        <mxCell id="viqxkSpvM3g-2Dvo09nj-162" value="view" style="edgeLabel;html=1;align=center;verticalAlign=middle;resizable=0;points=[];" vertex="1" connectable="0" parent="viqxkSpvM3g-2Dvo09nj-160">
          <mxGeometry x="0.8895" y="-3" relative="1" as="geometry">
            <mxPoint y="-1" as="offset" />
          </mxGeometry>
        </mxCell>
        <mxCell id="viqxkSpvM3g-2Dvo09nj-164" style="edgeStyle=orthogonalEdgeStyle;rounded=0;orthogonalLoop=1;jettySize=auto;html=1;entryX=0.5;entryY=0;entryDx=0;entryDy=0;startArrow=none;startFill=0;endArrow=block;endFill=1;" edge="1" parent="1" target="viqxkSpvM3g-2Dvo09nj-97">
          <mxGeometry relative="1" as="geometry">
            <mxPoint x="780" y="334" as="sourcePoint" />
            <Array as="points">
              <mxPoint x="780" y="334" />
              <mxPoint x="780" y="410" />
              <mxPoint x="375" y="410" />
            </Array>
          </mxGeometry>
        </mxCell>
        <mxCell id="viqxkSpvM3g-2Dvo09nj-165" value="add/edit/delete" style="edgeLabel;html=1;align=center;verticalAlign=middle;resizable=0;points=[];" vertex="1" connectable="0" parent="viqxkSpvM3g-2Dvo09nj-164">
          <mxGeometry x="0.0287" y="-2" relative="1" as="geometry">
            <mxPoint x="-228" y="52" as="offset" />
          </mxGeometry>
        </mxCell>
        <mxCell id="viqxkSpvM3g-2Dvo09nj-166" style="edgeStyle=orthogonalEdgeStyle;rounded=0;orthogonalLoop=1;jettySize=auto;html=1;entryX=0.25;entryY=0;entryDx=0;entryDy=0;startArrow=block;startFill=1;endArrow=block;endFill=1;exitX=0.25;exitY=0;exitDx=0;exitDy=0;" edge="1" parent="1" source="viqxkSpvM3g-2Dvo09nj-60" target="viqxkSpvM3g-2Dvo09nj-89">
          <mxGeometry relative="1" as="geometry">
            <mxPoint x="900" y="480" as="sourcePoint" />
            <Array as="points">
              <mxPoint x="893" y="410" />
              <mxPoint x="520" y="410" />
            </Array>
          </mxGeometry>
        </mxCell>
        <mxCell id="viqxkSpvM3g-2Dvo09nj-167" value="add/edit/delete" style="edgeLabel;html=1;align=center;verticalAlign=middle;resizable=0;points=[];" vertex="1" connectable="0" parent="viqxkSpvM3g-2Dvo09nj-166">
          <mxGeometry x="0.8876" relative="1" as="geometry">
            <mxPoint as="offset" />
          </mxGeometry>
        </mxCell>
        <mxCell id="viqxkSpvM3g-2Dvo09nj-168" value="add/edit/delete" style="edgeLabel;html=1;align=center;verticalAlign=middle;resizable=0;points=[];" vertex="1" connectable="0" parent="viqxkSpvM3g-2Dvo09nj-166">
          <mxGeometry x="-0.872" y="-1" relative="1" as="geometry">
            <mxPoint as="offset" />
          </mxGeometry>
        </mxCell>
        <mxCell id="viqxkSpvM3g-2Dvo09nj-170" style="edgeStyle=orthogonalEdgeStyle;rounded=0;orthogonalLoop=1;jettySize=auto;html=1;exitX=0;exitY=0.5;exitDx=0;exitDy=0;entryX=0.25;entryY=0;entryDx=0;entryDy=0;startArrow=none;startFill=0;endArrow=block;endFill=1;" edge="1" parent="1" source="viqxkSpvM3g-2Dvo09nj-129" target="viqxkSpvM3g-2Dvo09nj-51">
          <mxGeometry relative="1" as="geometry" />
        </mxCell>
        <mxCell id="viqxkSpvM3g-2Dvo09nj-171" value="add/edit/delete" style="edgeLabel;html=1;align=center;verticalAlign=middle;resizable=0;points=[];" vertex="1" connectable="0" parent="viqxkSpvM3g-2Dvo09nj-170">
          <mxGeometry x="0.7371" y="2" relative="1" as="geometry">
            <mxPoint as="offset" />
          </mxGeometry>
        </mxCell>
      </root>
    </mxGraphModel>
  </diagram>
</mxfile>
